# xmcd CD database file
#
# Track frame offsets:
#	150
#	20765
#	34362
#	56610
#	69080
#	80897
#	94560
#	110522
#	130917
#	142070
#	162227
#	179227
#	201975
#	221390
#
# Disc length: 3429 seconds
#
# Revision: 0
# Processed by: cddbd v1.4PL0 Copyright (c) Steve Scherf et al.
# Submitted via: CDex 1.50beta8
#
DISCID=d40d630e
DTITLE=Charlie Byrd - Byrd-Lore
DYEAR=2002
DGENRE=Jazz
TTITLE0=Jitterbug Waltz
TTITLE1=This Can't Be Love
TTITLE2=Stone Flower
TTITLE3=Brazilian Soul
TTITLE4=Gitanerias
TTITLE5=Adios
TTITLE6=Isn't It Romantic
TTITLE7=Cheek to Cheek
TTITLE8=La Rosita
TTITLE9=Bernie's Tune
TTITLE10=Let's Fall in Love
TTITLE11=Baia
TTITLE12=Wave
TTITLE13=En Memoria de Chano Pozo
EXTD=YEAR: 2002
EXTT0=
EXTT1=
EXTT2=
EXTT3=
EXTT4=
EXTT5=
EXTT6=
EXTT7=
EXTT8=
EXTT9=
EXTT10=
EXTT11=
EXTT12=
EXTT13=
PLAYORDER=
